<?xml version="1.0" encoding="UTF-8" standalone="no"?>
<!-- Created with Inkscape (http://www.inkscape.org/) -->

<svg
   xmlns:dc="http://purl.org/dc/elements/1.1/"
   xmlns:cc="http://creativecommons.org/ns#"
   xmlns:rdf="http://www.w3.org/1999/02/22-rdf-syntax-ns#"
   xmlns:svg="http://www.w3.org/2000/svg"
   xmlns="http://www.w3.org/2000/svg"
   xmlns:sodipodi="http://sodipodi.sourceforge.net/DTD/sodipodi-0.dtd"
   xmlns:inkscape="http://www.inkscape.org/namespaces/inkscape"
   width="512"
   height="512"
   id="svg2"
   version="1.1"
   inkscape:version="0.48.3.1 r9886"
   sodipodi:docname="ccan.svg">
  <defs
     id="defs4">
    <inkscape:perspective
       sodipodi:type="inkscape:persp3d"
       inkscape:vp_x="-122.85714 : 306 : 1"
       inkscape:vp_y="0 : 1000 : 0"
       inkscape:vp_z="389.14286 : 306 : 1"
       inkscape:persp3d-origin="133.14286 : 220.66667 : 1"
       id="perspective2985" />
  </defs>
  <sodipodi:namedview
     id="base"
     pagecolor="#ffffff"
     bordercolor="#666666"
     borderopacity="1.0"
     inkscape:pageopacity="0.0"
     inkscape:pageshadow="2"
     inkscape:zoom="0.98994949"
     inkscape:cx="263.10276"
     inkscape:cy="-370.12924"
     inkscape:document-units="px"
     inkscape:current-layer="layer1"
     showgrid="false"
     showborder="true"
     inkscape:showpageshadow="false"
     borderlayer="true"
     inkscape:window-width="1065"
     inkscape:window-height="719"
     inkscape:window-x="297"
     inkscape:window-y="5"
     inkscape:window-maximized="0"
     showguides="true"
     inkscape:guide-bbox="true">
    <sodipodi:guide
       orientation="0,1"
       position="294.96454,-321.22851"
       id="guide3001" />
    <sodipodi:guide
       orientation="0,1"
       position="574.7768,-432.34529"
       id="guide3003" />
  </sodipodi:namedview>
  <metadata
     id="metadata7">
    <rdf:RDF>
      <cc:Work
         rdf:about="">
        <dc:format>image/svg+xml</dc:format>
        <dc:type
           rdf:resource="http://purl.org/dc/dcmitype/StillImage" />
        <dc:title></dc:title>
      </cc:Work>
    </rdf:RDF>
  </metadata>
  <g
     inkscape:label="Layer 1"
     inkscape:groupmode="layer"
     id="layer1"
     transform="translate(0,-540.36218)">
    <path
       style="fill:#000000;fill-opacity:1;stroke:#ffffff;stroke-width:3;stroke-linecap:round;stroke-linejoin:round;stroke-miterlimit:4;stroke-opacity:1;stroke-dashoffset:0"
       d="m 266.88442,828.39033 41.12911,-57.27809 c 1.18559,-1.6511 2.14005,-1.4976 2.14005,0.34419 l 0,34.78839 c 0,1.84179 -0.95446,4.65376 -2.14005,6.30487 0,0 2.96234,52.54131 -41.12911,57.27808 -44.09145,4.73677 -3.46179,1.04166 -2.14005,-0.34421 0,0 16.38578,-11.41837 35.41684,-42.03522 19.03106,-30.61685 -34.46237,2.59308 -33.27679,0.94199 z"
       id="rect3773"
       inkscape:connector-curvature="0"
       sodipodi:nodetypes="ssssszszs" />
    <rect
       style="fill:#000000;fill-opacity:1;stroke:#ffffff;stroke-width:3.69960141;stroke-linecap:round;stroke-linejoin:round;stroke-miterlimit:4;stroke-opacity:1;stroke-dasharray:none;stroke-dashoffset:0"
       id="rect3001"
       width="83.084915"
       height="55.408539"
       x="388.37576"
       y="1111.6819"
       transform="matrix(0.65755576,-0.75340588,0,1,0,0)"
       ry="8.5714283"
       rx="8.3203764" />
    <text
       xml:space="preserve"
       style="font-size:161.42332458px;font-style:normal;font-variant:normal;font-weight:normal;font-stretch:normal;text-align:center;line-height:125%;letter-spacing:0px;word-spacing:0px;text-anchor:middle;fill:#000000;fill-opacity:1;stroke:none;font-family:Times New Roman;-inkscape-font-specification:Times New Roman"
       x="141.63165"
       y="870.3808"
       id="text3823"
       sodipodi:linespacing="125%"><tspan
         sodipodi:role="line"
         id="tspan3825"
         x="141.63165"
         y="870.3808">CC</tspan></text>
    <text
       sodipodi:linespacing="125%"
       id="text3827"
       y="870.3808"
       x="439.62967"
       style="font-size:161.42332458px;font-style:normal;font-variant:normal;font-weight:normal;font-stretch:normal;text-align:center;line-height:125%;letter-spacing:0px;word-spacing:0px;text-anchor:middle;fill:#000000;fill-opacity:1;stroke:none;font-family:Times New Roman;-inkscape-font-specification:Times New Roman"
       xml:space="preserve"><tspan
         y="870.3808"
         x="439.62967"
         id="tspan3829"
         sodipodi:role="line">N</tspan></text>
    <path
       sodipodi:nodetypes="ssssszsss"
       inkscape:connector-curvature="0"
       id="path3831"
       d="m 284.12042,1441.4296 24.38944,-57.6892 c 0.75652,-1.7895 1.59768,-1.6447 1.59768,0.2432 l 0,35.6591 c 0,1.8879 -0.71256,4.8191 -1.59768,6.5722 0,0 1.50908,40.7486 -29.53205,58.4925 -31.04115,17.7438 -2.22247,1.5804 -1.59769,-0.2433 l 14.1422,-41.2815 c 0.6248,-1.8238 -8.15842,0.037 -7.4019,-1.753 z"
       style="fill:#000000;fill-opacity:1;stroke:#ffffff;stroke-width:3;stroke-linecap:round;stroke-linejoin:round;stroke-miterlimit:4;stroke-opacity:1;stroke-dashoffset:0"
       inkscape:export-filename="/home/chrism/dev/ccan/web/ccan.png"
       inkscape:export-xdpi="78.723946"
       inkscape:export-ydpi="78.723946" />
    <path
       sodipodi:nodetypes="ssssszsss"
       inkscape:connector-curvature="0"
       id="path3833"
       d="m 265.75547,1442.3424 42.15845,-58.7116 c 1.21526,-1.6924 2.19361,-1.5351 2.19361,0.3528 l 0,35.6591 c 0,1.8879 -0.97835,4.7702 -2.19361,6.4626 0,0 -12.49502,40.3957 -42.15845,58.7116 -29.66342,18.316 -3.0549,1.4111 -2.19361,-0.3528 l 17.99917,-36.8639 c 0.86129,-1.764 -17.02081,-3.5654 -15.80556,-5.2578 z"
       style="fill:#000000;fill-opacity:1;stroke:#ffffff;stroke-width:3;stroke-linecap:round;stroke-linejoin:round;stroke-miterlimit:4;stroke-opacity:1;stroke-dashoffset:0"
       inkscape:export-filename="/home/chrism/dev/ccan/web/ccan.png"
       inkscape:export-xdpi="78.723946"
       inkscape:export-ydpi="78.723946" />
    <rect
       rx="8.3203764"
       ry="8.5714273"
       transform="matrix(0.65755576,-0.75340588,0,1,0,0)"
       y="1723.7775"
       x="386.22098"
       height="56.79525"
       width="85.164284"
       id="rect3835"
       style="fill:#000000;fill-opacity:1;stroke:#ffffff;stroke-width:3.69960141;stroke-linecap:round;stroke-linejoin:round;stroke-miterlimit:4;stroke-opacity:1;stroke-dasharray:none;stroke-dashoffset:0"
       inkscape:export-filename="/home/chrism/dev/ccan/web/ccan.png"
       inkscape:export-xdpi="78.723946"
       inkscape:export-ydpi="78.723946" />
    <path
       style="fill:#000000;fill-opacity:1;stroke:#ffffff;stroke-width:3;stroke-linecap:round;stroke-linejoin:round;stroke-miterlimit:4;stroke-opacity:1;stroke-dashoffset:0"
       d="m 339.86594,1441.4296 -24.38945,-57.6892 c -0.75651,-1.7895 -1.59766,-1.6447 -1.59766,0.2432 l 0,35.6591 c 0,1.8879 0.71255,4.8191 1.59766,6.5722 0,0 -1.50907,40.7486 29.53207,58.4925 31.04114,17.7438 2.22245,1.5804 1.59768,-0.2433 l -14.1422,-41.2815 c -0.62479,-1.8238 8.15843,0.037 7.4019,-1.753 z"
       id="path3837"
       inkscape:connector-curvature="0"
       sodipodi:nodetypes="ssssszsss"
       inkscape:export-filename="/home/chrism/dev/ccan/web/ccan.png"
       inkscape:export-xdpi="78.723946"
       inkscape:export-ydpi="78.723946" />
    <path
       style="fill:#000000;fill-opacity:1;stroke:#ffffff;stroke-width:3;stroke-linecap:round;stroke-linejoin:round;stroke-miterlimit:4;stroke-opacity:1;stroke-dashoffset:0"
       d="m 358.23088,1442.3424 -42.15843,-58.7116 c -1.21527,-1.6924 -2.19362,-1.5351 -2.19362,0.3528 l 0,35.6591 c 0,1.8879 0.97835,4.7702 2.19362,6.4626 0,0 12.49501,40.3957 42.15843,58.7116 29.66343,18.316 3.0549,1.4111 2.19361,-0.3528 l -17.99916,-36.8639 c -0.86128,-1.764 17.02082,-3.5654 15.80555,-5.2578 z"
       id="path3839"
       inkscape:connector-curvature="0"
       sodipodi:nodetypes="ssssszsss"
       inkscape:export-filename="/home/chrism/dev/ccan/web/ccan.png"
       inkscape:export-xdpi="78.723946"
       inkscape:export-ydpi="78.723946" />
    <rect
       style="fill:#000000;fill-opacity:1;stroke:#ffffff;stroke-width:3.69960141;stroke-linecap:round;stroke-linejoin:round;stroke-miterlimit:4;stroke-opacity:1;stroke-dasharray:none;stroke-dashoffset:0"
       id="rect3841"
       width="85.164284"
       height="56.79525"
       x="-562.72729"
       y="1008.8343"
       transform="matrix(-0.65755576,-0.75340588,0,1,0,0)"
       ry="8.5714273"
       rx="8.3203764"
       inkscape:export-filename="/home/chrism/dev/ccan/web/ccan.png"
       inkscape:export-xdpi="78.723946"
       inkscape:export-ydpi="78.723946" />
    <text
       sodipodi:linespacing="125%"
       id="text3843"
       y="1482.5332"
       x="141.63165"
       style="font-size:161.42332458000001338px;font-style:normal;font-variant:normal;font-weight:normal;font-stretch:normal;text-align:center;line-height:125%;letter-spacing:0px;word-spacing:0px;text-anchor:middle;fill:#000000;fill-opacity:1;stroke:none;font-family:FreeSerif;-inkscape-font-specification:FreeSerif"
       xml:space="preserve"
       inkscape:export-filename="/home/chrism/dev/ccan/web/ccan.png"
       inkscape:export-xdpi="78.723946"
       inkscape:export-ydpi="78.723946"><tspan
         y="1482.5332"
         x="141.63165"
         id="tspan3845"
         sodipodi:role="line">CC</tspan></text>
    <text
       xml:space="preserve"
       style="font-size:161.42332458000001338px;font-style:normal;font-variant:normal;font-weight:normal;font-stretch:normal;text-align:center;line-height:125%;letter-spacing:0px;word-spacing:0px;text-anchor:middle;fill:#000000;fill-opacity:1;stroke:none;font-family:FreeSerif;-inkscape-font-specification:FreeSerif"
       x="439.62967"
       y="1482.5332"
       id="text3847"
       sodipodi:linespacing="125%"
       inkscape:export-filename="/home/chrism/dev/ccan/web/ccan.png"
       inkscape:export-xdpi="78.723946"
       inkscape:export-ydpi="78.723946"><tspan
         sodipodi:role="line"
         id="tspan3849"
         x="439.62967"
         y="1482.5332">N</tspan></text>
    <path
       sodipodi:nodetypes="ssssszszs"
       inkscape:connector-curvature="0"
       id="path3851"
       d="M 353.67481,828.39033 312.5457,771.11224 c -1.18559,-1.6511 -2.14005,-1.4976 -2.14005,0.34419 l 0,34.78839 c 0,1.84179 0.95446,4.65376 2.14005,6.30487 0,0 -2.96234,52.54131 41.12911,57.27808 44.09145,4.73677 3.46179,1.04166 2.14005,-0.34421 0,0 -16.38578,-11.41837 -35.41684,-42.03522 -19.03106,-30.61685 34.46237,2.59308 33.27679,0.94199 z"
       style="fill:#000000;fill-opacity:1;stroke:#ffffff;stroke-width:3;stroke-linecap:round;stroke-linejoin:round;stroke-miterlimit:4;stroke-opacity:1;stroke-dashoffset:0" />
    <rect
       rx="8.3203764"
       ry="8.5714283"
       transform="matrix(-0.65755576,-0.75340588,0,1,0,0)"
       y="400.66544"
       x="-555.36047"
       height="55.408539"
       width="83.084915"
       id="rect3853"
       style="fill:#000000;fill-opacity:1;stroke:#ffffff;stroke-width:3.69960141;stroke-linecap:round;stroke-linejoin:round;stroke-miterlimit:4;stroke-opacity:1;stroke-dasharray:none;stroke-dashoffset:0" />
  </g>
</svg>
